<svg width="20" height="15" viewBox="0 0 20 15" fill="none" xmlns="http://www.w3.org/2000/svg">
<path fill-rule="evenodd" clip-rule="evenodd" d="M8.77864 1.62388L8.31856 1.29827C7.66188 0.833547 6.87723 0.583984 6.07277 0.583984H5.51134C5.14083 0.583984 4.76656 0.60735 4.41737 0.731192C2.23323 1.50584 0.730847 4.33777 0.839518 10.7614C0.861408 12.0556 1.16426 13.4861 2.33203 14.0445C2.69592 14.2186 3.1226 14.334 3.60847 14.334C4.19148 14.334 4.65446 14.1678 5.01181 13.9336C5.38652 13.688 5.71645 13.3688 6.04626 13.0497C6.4538 12.6554 6.86117 12.2613 7.35263 12.0065C7.88791 11.7289 8.4821 11.584 9.08499 11.584H10.9163C11.5192 11.584 12.1134 11.7289 12.6487 12.0065C13.1401 12.2613 13.5475 12.6554 13.9551 13.0497C14.2849 13.3688 14.6148 13.688 14.9895 13.9336C15.3468 14.1678 15.8098 14.334 16.3928 14.334C16.8787 14.334 17.3054 14.2186 17.6693 14.0445C18.837 13.4861 19.1399 12.0556 19.1618 10.7614C19.2704 4.33776 17.768 1.50584 15.5839 0.731192C15.2347 0.60735 14.8604 0.583984 14.4899 0.583984H13.9285C13.1241 0.583984 12.3394 0.833547 11.6828 1.29827L11.2227 1.62386C10.8654 1.87675 10.4384 2.01255 10.0006 2.01255C9.56294 2.01255 9.13596 1.87675 8.77864 1.62388ZM14.3548 4.25065C14.7345 4.25065 15.0423 4.55846 15.0423 4.93815C15.0423 5.31783 14.7345 5.62565 14.3548 5.62565C13.9751 5.62565 13.6673 5.31783 13.6673 4.93815C13.6673 4.55846 13.9751 4.25065 14.3548 4.25065ZM5.87565 4.47982C6.25534 4.47982 6.56315 4.78763 6.56315 5.16732V5.85482H7.25065C7.63034 5.85482 7.93815 6.16263 7.93815 6.54232C7.93815 6.922 7.63034 7.22982 7.25065 7.22982H6.56315V7.91732C6.56315 8.297 6.25534 8.60482 5.87565 8.60482C5.49596 8.60482 5.18815 8.297 5.18815 7.91732V7.22982H4.50065C4.12096 7.22982 3.81315 6.922 3.81315 6.54232C3.81315 6.16263 4.12096 5.85482 4.50065 5.85482H5.18815V5.16732C5.18815 4.78763 5.49596 4.47982 5.87565 4.47982ZM16.4173 6.31315C16.4173 6.69283 16.1095 7.00065 15.7298 7.00065C15.3501 7.00065 15.0423 6.69283 15.0423 6.31315C15.0423 5.93347 15.3501 5.62565 15.7298 5.62565C16.1095 5.62565 16.4173 5.93347 16.4173 6.31315ZM12.9798 7.00065C13.3595 7.00065 13.6673 6.69283 13.6673 6.31315C13.6673 5.93347 13.3595 5.62565 12.9798 5.62565C12.6001 5.62565 12.2923 5.93347 12.2923 6.31315C12.2923 6.69283 12.6001 7.00065 12.9798 7.00065ZM15.0423 7.68815C15.0423 7.30847 14.7345 7.00065 14.3548 7.00065C13.9751 7.00065 13.6673 7.30847 13.6673 7.68815C13.6673 8.06783 13.9751 8.37565 14.3548 8.37565C14.7345 8.37565 15.0423 8.06783 15.0423 7.68815Z" fill="#25B6EA"/>
</svg>
